<svg width="17" height="16" viewBox="0 0 17 16" fill="none" xmlns="http://www.w3.org/2000/svg">
<path d="M6.74427 8.68907L6.36667 8.31253L5.61253 9.06667L5.98907 9.44427L6.74427 8.68907ZM8.5 11.2L8.1224 11.5776L8.5 11.9541L8.8776 11.5776L8.5 11.2ZM11.0109 9.44427L11.3875 9.06667L10.6333 8.31253L10.2557 8.68907L11.0109 9.44427ZM5.98907 9.44427L8.1224 11.5776L8.8776 10.8224L6.74427 8.68907L5.98907 9.44427ZM8.8776 11.5776L11.0109 9.44427L10.2557 8.68907L8.1224 10.8224L8.8776 11.5776ZM9.03333 11.2V4.26667H7.96667V11.2H9.03333ZM1.56667 8C1.56667 6.16117 2.29714 4.39765 3.59739 3.09739C4.89765 1.79714 6.66117 1.06667 8.5 1.06667V0C6.37827 0 4.34344 0.842855 2.84315 2.34315C1.34285 3.84344 0.5 5.87827 0.5 8H1.56667ZM8.5 14.9333C6.66117 14.9333 4.89765 14.2029 3.59739 12.9026C2.29714 11.6024 1.56667 9.83883 1.56667 8H0.5C0.5 10.1217 1.34285 12.1566 2.84315 13.6569C4.34344 15.1571 6.37827 16 8.5 16V14.9333ZM15.4333 8C15.4333 8.9105 15.254 9.81208 14.9056 10.6533C14.5571 11.4945 14.0464 12.2588 13.4026 12.9026C12.7588 13.5464 11.9945 14.0571 11.1533 14.4056C10.3121 14.754 9.4105 14.9333 8.5 14.9333V16C10.6217 16 12.6566 15.1571 14.1569 13.6569C15.6571 12.1566 16.5 10.1217 16.5 8H15.4333ZM16.5 8C16.5 5.87827 15.6571 3.84344 14.1569 2.34315C12.6566 0.842855 10.6217 0 8.5 0V1.06667C9.4105 1.06667 10.3121 1.246 11.1533 1.59444C11.9945 1.94287 12.7588 2.45357 13.4026 3.09739C14.0464 3.74121 14.5571 4.50554 14.9056 5.34673C15.254 6.18792 15.4333 7.0895 15.4333 8H16.5Z" fill="white"/>
</svg>
